<svg xmlns="http://www.w3.org/2000/svg" xmlns:xlink="http://www.w3.org/1999/xlink" version="1.1" style="" xml:space="preserve" width="841.89" height="595.28"><rect id="backgroundrect" width="100%" height="100%" x="0" y="0" fill="none" stroke="none"/>
<style type="text/css">
	.st0{fill:#444C4D;}
	.st1{fill:#FBB83F;}
	.st2{fill:#F89941;}
	.st3{fill:#EC8836;}
	.st4{fill:#D6762A;}
	.st5{fill:#7EC46B;}
	.st6{fill:#5FBC5D;}
	.st7{fill:#18A459;}
	.st8{fill:#147D52;}
	.st9{fill:#8670B2;}
	.st10{fill:#4D447B;}
	.st11{fill:#60548C;}
	.st12{fill:#7562A6;}
</style>

<g class="currentLayer" style=""><title>Layer 1</title>
	
	
	
	
	
	
	
	
	<g id="svg_10" class="selected">
		<path class="st1" d="M490.20000953674315,154.15545450210573 c0.36000000000000015,0.3400000000000003 0.7300000000000003,0.6900000000000006 1.09,1.04 c7.62,7.54 14.99,17.75 17.57,27.11 l0.1600000000000001,0.6200000000000003 c0.05000000000000003,0.21000000000000008 0.1,0.41000000000000014 0.15000000000000008,0.6100000000000003 c0.04000000000000002,0.2 0.09000000000000007,0.41000000000000014 0.13,0.6100000000000003 c0.6400000000000003,2.73 0.7400000000000003,5.78 0.2,8.54 c1.52,-4.5600000000000005 4.41,-13.54 0.51,-25.6 c-5.03,-15.6 -22.68,-29.22 -38.9,-37.36 c-0.05000000000000003,-0.03000000000000002 -2.33,-1.09 -2.6100000000000003,-1.21 c0.6900000000000006,0.3400000000000003 -23.43,-11.19 -31.11,-1.3 c-7.69,9.89 0.22000000000000008,26.7 7.34,37.2 c3.9699999999999998,5.84 11.58,13.37 20.03,16.28 c-0.02000000000000001,-0.03000000000000002 -0.04000000000000002,-0.07 -0.05000000000000003,-0.1 c-7.24,-2.72 -12.42,-9.65 -12.42,-17.84 c0,-10.56 8.56,-19.11 19.11,-19.11 c6.22,0 11.7,3.02 15.19,7.63 c0.30000000000000016,0.24000000000000007 0.54,0.43000000000000016 0.6100000000000003,0.5 c0.92,0.78 1.84,1.6 2.7600000000000002,2.48 c0.36000000000000015,0.3400000000000003 0.7000000000000003,0.7500000000000003 1.06,1.11 c0.49000000000000016,0.48000000000000015 0.9600000000000003,1 1.45,1.49 C491.19000953674316,155.34545450210572 489.40000953674314,153.40545450210573 490.20000953674315,154.15545450210573 z" id="svg_11"/>
		<path class="st1" d="M470.75000953674316,129.6454545021057 c0.05000000000000003,0.02000000000000001 0.1,0.05000000000000003 0.14,0.08000000000000004 l-0.3900000000000002,-0.19000000000000009 C470.5800095367432,129.56545450210572 470.66000953674313,129.60545450210572 470.75000953674316,129.6454545021057 " id="svg_12"/>
		<path class="st2" d="M461.07000953674316,125.33545450210573 c-2.8200000000000003,-0.6900000000000006 -8.86,-2.13 -12.7,-3.05 l-3.5,1.59 l-4.11,21.89 l3.48,16.62 l4.93,7.1 l4.87,3.95 c0,0 -8.27,-9.54 -6.35,-22.59 C449.31000953674317,139.78545450210572 453.1100095367432,130.44545450210572 461.07000953674316,125.33545450210573 z" id="svg_13"/>
		<path class="st3" d="M449.56000953674317,168.59545450210572 c0,0 -8.85,-12.69 -6.91,-28.2 s9.66,-18.94 9.66,-18.94 l-11.74,1.26 c0,0 -8.36,15.17 -3.67,25.51 C441.5900095367432,158.5654545021057 449.56000953674317,168.59545450210572 449.56000953674317,168.59545450210572 z" id="svg_14"/>
		<path class="st4" d="M464.70000953674315,180.59545450210572 c0,0 -8.77,-0.7400000000000003 -21.46,-17.69 c-12.65,-16.91 -12.5,-36.7 -1.29,-39.02 c0,0 -5.62,10.55 -3.16,22.34 C441.15000953674314,157.41545450210572 448.7900095367431,172.8754545021057 464.70000953674315,180.59545450210572 z" id="svg_15"/>
		<g id="svg_16">
			<path class="st5" d="M471.40000953674314,181.8654545021057 c-3.02,0 -5.83,-0.7600000000000003 -8.37,-2.01 c-7.78,-3.2 -14.59,-9.97 -18.31,-15.44 c-7.12,-10.5 -15.03,-27.31 -7.34,-37.2 c7.69,-9.89 33.06,2.2 33.06,2.2 c-9.97,-4.73 -28.52,-15.48 -43.23,-7.11 c-8.82,5.01 -13.1,13.49 -14.77,22.47 l-0.010000000000000005,0.03000000000000002 c-0.7600000000000003,4.22 -1.03,8.51 -0.8500000000000003,12.79 c0.11000000000000004,2.98 0.3900000000000002,5.94 0.8600000000000003,8.88 c0.46,2.94 1.12,5.85 1.98,8.7 c4.1,4.16 12.05,9.73 17.61,11.52 c14.88,4.79 23.96,3.6900000000000004 34.85,0.4 c6.13,-1.86 11.3,-5.49 14.8,-8.34 C478.69000953674316,180.71545450210573 475.25000953674316,181.8654545021057 471.40000953674314,181.8654545021057 z" id="svg_17"/>
			<path class="st5" d="M485.77000953674315,175.2354545021057 c0.27,-0.27 0.42000000000000015,-0.43000000000000016 0.42000000000000015,-0.43000000000000016 c-0.09000000000000007,0.1 -0.19000000000000009,0.17 -0.29000000000000015,0.27 C485.8600095367432,175.1154545021057 485.82000953674316,175.1754545021057 485.77000953674315,175.2354545021057 z" id="svg_18"/>
		</g>
		<path class="st6" d="M449.75000953674316,181.51545450210574 c-15.56,-7.24 -29.76,-24.5 -37.36,-36.36 c-0.7100000000000003,4.11 -0.99,8.29 -0.81,12.45 c0.11000000000000004,2.98 0.3900000000000002,5.94 0.8600000000000003,8.88 c0.46,2.94 1.12,5.85 1.98,8.7 c4.1,4.16 12.05,9.73 17.61,11.52 c14.88,4.79 23.96,3.6900000000000004 34.85,0.4 c4.07,-1.23 7.66,-3.25 10.68,-5.3 C472.2200095367432,184.70545450210574 462.65000953674314,187.51545450210574 449.75000953674316,181.51545450210574 z" id="svg_19"/>
		<path class="st7" d="M444.8600095367432,184.09545450210572 c-16.19,-6.37 -25.19,-15.3 -33.22,-25.61 c0.13,2.68 0.38000000000000017,5.35 0.81,8 c0.46,2.94 1.12,5.85 1.98,8.7 c4.1,4.16 12.05,9.73 17.61,11.52 c14.88,4.79 23.96,3.6900000000000004 34.85,0.4 c4.36,-1.32 8.27,-3.5700000000000003 11.41,-5.77 C472.28000953674314,185.01545450210574 460.13000953674316,190.10545450210572 444.8600095367432,184.09545450210572 z" id="svg_20"/>
		<path class="st5" d="M485.77000953674315,175.2354545021057 c0.27,-0.27 0.42000000000000015,-0.43000000000000016 0.42000000000000015,-0.43000000000000016 c-0.09000000000000007,0.1 -0.19000000000000009,0.17 -0.29000000000000015,0.27 C485.8600095367432,175.1154545021057 485.82000953674316,175.1754545021057 485.77000953674315,175.2354545021057 z" id="svg_21"/>
		<path class="st5" d="M485.77000953674315,175.2354545021057 c0.27,-0.27 0.42000000000000015,-0.43000000000000016 0.42000000000000015,-0.43000000000000016 c-0.09000000000000007,0.1 -0.19000000000000009,0.17 -0.29000000000000015,0.27 C485.8600095367432,175.1154545021057 485.82000953674316,175.1754545021057 485.77000953674315,175.2354545021057 z" id="svg_22"/>
		<path class="st5" d="M485.77000953674315,175.2354545021057 c0.27,-0.27 0.42000000000000015,-0.43000000000000016 0.42000000000000015,-0.43000000000000016 c-0.09000000000000007,0.1 -0.19000000000000009,0.17 -0.29000000000000015,0.27 C485.8600095367432,175.1154545021057 485.82000953674316,175.1754545021057 485.77000953674315,175.2354545021057 z" id="svg_23"/>
		<g id="svg_24">
			<path class="st8" d="M414.45000953674315,175.15545450210573 c4.1,4.16 12.05,9.73 17.61,11.52 c14.88,4.79 23.96,3.6900000000000004 34.85,0.4 c0.38000000000000017,-0.11000000000000004 0.8300000000000003,-0.24000000000000007 1.2,-0.37000000000000016 c-2.68,0.9400000000000003 -5.74,1.62 -8.89,1.9 c-11.77,1.05 -20.74,-1.61 -31.56,-8.37 c-6.03,-3.77 -11.03,-8.44 -15.12,-13.25 c0.46,2.7800000000000002 1.08,5.52 1.8900000000000001,8.21 c0.010000000000000005,0.010000000000000005 0.03000000000000002,0.03000000000000002 0.04000000000000002,0.04000000000000002 C414.4600095367432,175.20545450210574 414.4600095367432,175.1754545021057 414.45000953674315,175.15545450210573 z" id="svg_25"/>
		</g>
		<path class="st9" d="M509.25000953674316,192.8754545021057 c0.010000000000000005,-0.06000000000000003 0.11000000000000004,-0.08000000000000004 0.12000000000000002,-0.14 c0.04000000000000002,-0.11000000000000004 -0.1,-0.09000000000000007 -0.06000000000000003,-0.21000000000000008 c-0.18000000000000008,0.02000000000000001 0.02000000000000001,-0.04000000000000002 0.02000000000000001,-0.04000000000000002 c0,0 0.12000000000000002,-0.07 0.12000000000000002,-0.07 c0,-0.03000000000000002 -0.02000000000000001,-0.06000000000000003 -0.02000000000000001,-0.08000000000000004 c0.010000000000000005,-0.06000000000000003 0.05000000000000003,-0.08000000000000004 0.06000000000000003,-0.14 c0.47000000000000014,-2.6900000000000004 0.3400000000000003,-5.45 -0.27,-8.11 c-0.04000000000000002,-0.2 -0.09000000000000007,-0.4 -0.14,-0.6100000000000003 c-0.05000000000000003,-0.21000000000000008 -0.09000000000000007,-0.4 -0.14,-0.6100000000000003 l-0.1600000000000001,-0.6200000000000003 c-2.58,-9.37 -10.09,-19.41 -17.71,-26.93 c-0.36000000000000015,-0.36000000000000015 -0.7000000000000003,-0.77 -1.06,-1.11 c-0.93,-0.8900000000000003 -1.84,-1.7000000000000002 -2.7600000000000002,-2.48 c-0.09000000000000007,-0.07 -0.38000000000000017,-0.31000000000000016 -0.7400000000000003,-0.6000000000000003 c0,0 0,0 0,0 c0,0 0,0 0,0 c0.56,0.7300000000000003 1.06,1.49 1.51,2.3 l0,0 c0.02000000000000001,0.04000000000000002 0.04000000000000002,0.08000000000000004 0.06000000000000003,0.12000000000000002 c0.46,0.8400000000000003 0.8800000000000003,1.6900000000000006 1.21,2.6 c0,0 0,0 0,0 c0.18000000000000008,0.46 0.30000000000000016,0.9500000000000003 0.44000000000000017,1.4300000000000002 c0,0 0,0 0,0 c0.47000000000000014,1.6500000000000006 0.8,3.36 0.8,5.16 c0,1.49 -0.21000000000000008,2.92 -0.53,4.3100000000000005 c0,0 0,0 0,0 c-0.11000000000000004,0.48000000000000015 -0.29000000000000015,0.93 -0.43000000000000016,1.3900000000000001 c-0.26,0.8300000000000003 -0.54,1.6500000000000006 -0.91,2.43 c0,0 0,0 0,0 c-0.08000000000000004,0.1600000000000001 -0.18000000000000008,0.3200000000000002 -0.26,0.48000000000000015 c-0.49000000000000016,0.9600000000000003 -1.03,1.87 -1.6600000000000001,2.72 c0,0 0,0 0,0 c-0.12000000000000002,0.1600000000000001 -0.25,0.30000000000000016 -0.37000000000000016,0.45 c-0.8700000000000003,1.1 -1.85,2.1 -2.95,2.99 l0,0 c-0.12000000000000002,0.1 -0.24000000000000007,0.2 -0.37000000000000016,0.30000000000000016 l0,0 c-0.6100000000000003,0.47000000000000014 -1.23,0.9 -1.9,1.3 c0,0 0,0 0,0 c-3.4,2.7800000000000002 -8.37,6.18 -14.25,7.96 c-10.88,3.3 -19.97,4.39 -34.85,-0.4 c-5.5600000000000005,-1.79 -13.57,-7.44 -17.67,-11.61 c3.2800000000000002,13.22 15.23,47.88 30.34,56.78 c8.92,5.25 20.43,3.9 31.37,-1.62 c6.61,-3.41 12.620000000000001,-7.87 17.78,-13.23 c3.85,-3.92 7.24,-8.28 10.08,-12.99 c2.21,-3.64 4.15,-7.28 5.54,-11.31 c0,0 0,0 0,-0.010000000000000005 c0,0 0,0.010000000000000005 0,0.010000000000000005 C509.42000953674324,192.8854545021057 509.3100095367431,192.6854545021057 509.25000953674316,192.8754545021057 z" id="svg_26"/>
		<path class="st10" d="M486.4900095367432,151.1354545021057 c14.35,12.92 21.47,33.86 17.61,52.63 c2.15,-3.56 4.05,-7.13 5.4,-11.07 c0,0 0,0 0,-0.010000000000000005 c0,0 0,-0.010000000000000005 0,-0.010000000000000005 C512.6700095367432,177.5554545021057 497.62000953674317,159.15545450210573 486.4900095367432,151.1354545021057 z" id="svg_27"/>
		<g id="svg_28">
			<path class="st11" d="M487.2300095367432,151.7354545021057 c-0.09000000000000007,-0.07 -0.38000000000000017,-0.31000000000000016 -0.7400000000000003,-0.6000000000000003 c0.6300000000000003,0.5 1.2,1.03 1.79,1.54 C487.93000953674317,152.3654545021057 487.5800095367432,152.02545450210573 487.2300095367432,151.7354545021057 z" id="svg_29"/>
			<path class="st11" d="M494.0900095367432,216.7554545021057 c3.7600000000000002,-3.8600000000000003 7.08,-8.14 9.870000000000001,-12.75 c0.04000000000000002,-0.07 0.08000000000000004,-0.15000000000000008 0.12000000000000002,-0.22000000000000008 c2.6100000000000003,-12.68 1.29,-32.26 -11.29,-46.66 c-0.5800000000000003,-0.6000000000000003 -1.1600000000000001,-1.22 -1.7400000000000002,-1.79 c-0.36000000000000015,-0.36000000000000015 -0.7000000000000003,-0.77 -1.06,-1.11 c-0.35000000000000014,-0.3300000000000002 -0.7000000000000003,-0.6200000000000003 -1.04,-0.9400000000000003 C505.0800095367432,170.91545450210572 500.9900095367432,204.2454545021057 494.0900095367432,216.7554545021057 z" id="svg_30"/>
		</g>
		<path class="st12" d="M476.3000095367432,230.10545450210572 c6.53,-3.39 12.48,-7.82 17.59,-13.12 c0.07,-0.08000000000000004 0.13,-0.1600000000000001 0.21000000000000008,-0.24000000000000007 c6.88,-12.51 10.98,-45.83 -5.15,-63.48 c-0.5700000000000003,-0.52 -1.15,-1.06 -1.7200000000000002,-1.54 c-0.09000000000000007,-0.07 -0.38000000000000017,-0.31000000000000016 -0.7400000000000003,-0.6000000000000003 C503.57000953674316,168.4454545021057 491.44000953674316,214.3754545021057 476.3000095367432,230.10545450210572 z" id="svg_31"/>
	</g>
</g></svg>